<svg width="72" height="72" version="1.1" xmlns="http://www.w3.org/2000/svg" desc="Created with imagetracer.js version 1.2.6" ><path fill="rgb(168,255,84)" stroke="rgb(168,255,84)" stroke-width="1" opacity="0.34901960784313724" d="M 41.5 8 L 43 8.5 L 40.5 10 L 41.5 8 Z " /><path fill="rgb(168,255,84)" stroke="rgb(168,255,84)" stroke-width="1" opacity="0.34901960784313724" d="M 45.5 9 L 47 12.5 L 46 12.5 L 45.5 9 Z " /><path fill="rgb(168,255,84)" stroke="rgb(168,255,84)" stroke-width="1" opacity="0.34901960784313724" d="M 18.5 16 L 0.5 35 L 18.5 16 Z " /><path fill="rgb(168,255,84)" stroke="rgb(168,255,84)" stroke-width="1" opacity="0.34901960784313724" d="M 21.5 16 L 26 20.5 L 26 22.5 L 13 36.5 L 26 49.5 L 26 51.5 L 21 55.5 L 25 51.5 L 25 49.5 L 12 35.5 L 25 22.5 L 25 20.5 L 21.5 16 Z " /><path fill="rgb(168,255,84)" stroke="rgb(168,255,84)" stroke-width="1" opacity="0.34901960784313724" d="M 50.5 16 L 47 20.5 L 47 22.5 L 60 36.5 L 47 49.5 L 47 51.5 L 50.5 56 L 46 51.5 L 46 49.5 L 59 35.5 L 46 22.5 L 46 20.5 L 50.5 16 Z " /><path fill="rgb(168,255,84)" stroke="rgb(168,255,84)" stroke-width="1" opacity="0.34901960784313724" d="M 53.5 16 L 71.5 35 L 53.5 16 Z " /><path fill="rgb(168,255,84)" stroke="rgb(168,255,84)" stroke-width="1" opacity="0.34901960784313724" d="M 36.5 21 L 37 23.5 L 36 23.5 L 36.5 21 Z " /><path fill="rgb(168,255,84)" stroke="rgb(168,255,84)" stroke-width="1" opacity="0.34901960784313724" d="M 43.5 21 L 44 23.5 L 43 23.5 L 43.5 21 Z " /><path fill="rgb(168,255,84)" stroke="rgb(168,255,84)" stroke-width="1" opacity="0.34901960784313724" d="M 33.5 31 L 34 33.5 L 33 33.5 L 33.5 31 Z " /><path fill="rgb(168,255,84)" stroke="rgb(168,255,84)" stroke-width="1" opacity="0.34901960784313724" d="M 0.5 37 L 18.5 56 L 0.5 37 Z " /><path fill="rgb(168,255,84)" stroke="rgb(168,255,84)" stroke-width="1" opacity="0.34901960784313724" d="M 71.5 37 L 53.5 56 L 71.5 37 Z " /><path fill="rgb(168,255,84)" stroke="rgb(168,255,84)" stroke-width="1" opacity="0.34901960784313724" d="M 38.5 38 L 39 40.5 L 38 40.5 L 38.5 38 Z " /><path fill="rgb(168,255,84)" stroke="rgb(168,255,84)" stroke-width="1" opacity="0.34901960784313724" d="M 28.5 48 L 29 50.5 L 28 50.5 L 28.5 48 Z " /><path fill="rgb(168,255,84)" stroke="rgb(168,255,84)" stroke-width="1" opacity="0.34901960784313724" d="M 35.5 48 L 36 50.5 L 35 50.5 L 35.5 48 Z " /><path fill="rgb(168,255,84)" stroke="rgb(168,255,84)" stroke-width="1" opacity="0.34901960784313724" d="M 25.5 59 L 27 62.5 L 25 61.5 L 25.5 59 Z " /><path fill="rgb(168,255,84)" stroke="rgb(168,255,84)" stroke-width="1" opacity="0.34901960784313724" d="M 31.5 62 L 30.5 64 L 29 63.5 L 31.5 62 Z " /><path fill="rgb(0,0,0)" stroke="rgb(0,0,0)" stroke-width="1" opacity="0" d="M 0 0 L 72 0 L 72 33.5 L 53.5 16 L 50.5 16 L 46 20.5 L 46 22.5 L 59 36.5 L 46 49.5 L 46 51.5 L 50.5 56 L 53.5 56 L 72 38.5 L 72 72 L 0 72 L 0.5 38 L 18.5 56 L 21.5 56 L 26 51.5 L 26 49.5 L 13 35.5 L 26 22.5 L 26 20.5 L 21.5 16 L 18.5 16 L 0 33.5 L 0 0 Z M 42 8 L 39 12 L 25 62 L 31 64 L 33 61 L 47 11 L 42 8 Z " /><path fill="rgb(168,255,83)" stroke="rgb(168,255,83)" stroke-width="1" opacity="0.9921568627450981" d="M 19.5 16 L 25 20.5 L 20.5 17 L 1 35.5 L 19.5 55 L 24.5 51 L 20.5 56 L 0 36.5 L 19.5 16 Z " /><path fill="rgb(168,255,83)" stroke="rgb(168,255,83)" stroke-width="1" opacity="0.9921568627450981" d="M 51.5 16 L 72 35.5 L 52.5 56 L 47 51.5 L 51.5 55 L 71 36.5 L 52.5 17 L 47.5 21 L 51.5 16 Z " /><path fill="rgb(168,255,83)" stroke="rgb(168,255,83)" stroke-width="1" opacity="0.9921568627450981" d="M 24.5 22 L 12 35.5 L 25 49.5 L 11 36.5 L 24.5 22 Z " /><path fill="rgb(168,255,83)" stroke="rgb(168,255,83)" stroke-width="1" opacity="0.9921568627450981" d="M 47.5 22 L 61 36.5 L 47 49.5 L 60 35.5 L 47.5 22 Z " /><path fill="rgb(168,255,83)" stroke="rgb(168,255,83)" stroke-width="1" opacity="1" d="M 41 9 L 46 10 L 31 63 L 26 62 L 41 9 Z " /><path fill="rgb(168,255,83)" stroke="rgb(168,255,83)" stroke-width="1" opacity="1" d="M 19.5 17 L 25 21.5 L 11 36.5 L 25 50.5 L 20.5 55 L 1 36.5 L 19.5 17 Z " /><path fill="rgb(168,255,83)" stroke="rgb(168,255,83)" stroke-width="1" opacity="1" d="M 51.5 17 L 71 35.5 L 52.5 55 L 47 50.5 L 61 35.5 L 47 21.5 L 51.5 17 Z " /></svg>